<svg width="143" height="32" viewBox="0 0 143 32" fill="none" xmlns="http://www.w3.org/2000/svg">
<path d="M111.619 23.3574C110.323 23.3574 109.171 23.0774 108.163 22.5174C107.155 21.9414 106.371 21.1654 105.811 20.1894C105.267 19.2134 104.995 18.1334 104.995 16.9494C104.995 15.7654 105.267 14.6934 105.811 13.7334C106.371 12.7574 107.155 11.9894 108.163 11.4294C109.171 10.8534 110.323 10.5654 111.619 10.5654C112.915 10.5654 114.067 10.8534 115.075 11.4294C116.099 11.9894 116.883 12.7574 117.427 13.7334C117.987 14.7094 118.267 15.7814 118.267 16.9494C118.267 18.1174 117.987 19.1974 117.427 20.1894C116.883 21.1654 116.099 21.9414 115.075 22.5174C114.067 23.0774 112.915 23.3574 111.619 23.3574ZM111.619 13.5654C110.739 13.5654 110.051 13.8854 109.555 14.5254C109.075 15.1494 108.835 15.9574 108.835 16.9494C108.835 17.9414 109.075 18.7574 109.555 19.3974C110.051 20.0374 110.739 20.3574 111.619 20.3574C112.499 20.3574 113.187 20.0374 113.683 19.3974C114.179 18.7574 114.427 17.9414 114.427 16.9494C114.427 15.9574 114.179 15.1494 113.683 14.5254C113.187 13.8854 112.499 13.5654 111.619 13.5654Z" fill="black"/>
<path d="M104.931 10.8774C105.043 10.9254 105.083 11.0054 105.051 11.1174L104.643 13.7574C104.611 13.8854 104.531 13.9254 104.403 13.8774C103.987 13.6694 103.547 13.5654 103.083 13.5654C102.539 13.5654 102.035 13.7254 101.571 14.0454C101.123 14.3494 100.755 14.8214 100.467 15.4614C100.179 16.0854 100.035 16.8694 100.035 17.8134V23.0934C100.035 23.2214 99.9711 23.2854 99.8431 23.2854H96.3871C96.2591 23.2854 96.1951 23.2214 96.1951 23.0934V10.8294C96.1951 10.7014 96.2591 10.6374 96.3871 10.6374H99.8431C99.9711 10.6374 100.035 10.7014 100.035 10.8294V12.4374C100.035 12.5334 100.059 12.5894 100.107 12.6054C100.155 12.6214 100.203 12.5894 100.251 12.5094C101.035 11.2134 102.091 10.5654 103.419 10.5654C104.043 10.5654 104.547 10.6694 104.931 10.8774Z" fill="black"/>
<path d="M82.1744 23.2854C82.0464 23.2854 81.9824 23.2214 81.9824 23.0934V6.40538C81.9824 6.27738 82.0464 6.21338 82.1744 6.21338H85.6304C85.7584 6.21338 85.8224 6.27738 85.8224 6.40538V12.2934C85.8224 12.3734 85.8464 12.4214 85.8944 12.4374C85.9424 12.4534 85.9904 12.4294 86.0384 12.3654C86.4864 11.8374 87.0224 11.4054 87.6464 11.0694C88.2864 10.7334 88.9664 10.5654 89.6864 10.5654C91.3184 10.5654 92.5664 11.0934 93.4304 12.1494C94.3104 13.1894 94.7504 14.5654 94.7504 16.2774V23.0934C94.7504 23.2214 94.6864 23.2854 94.5584 23.2854H91.1024C90.9744 23.2854 90.9104 23.2214 90.9104 23.0934V16.2774C90.9104 15.3814 90.6944 14.7094 90.2624 14.2614C89.8304 13.7974 89.2304 13.5654 88.4624 13.5654C87.7584 13.5654 87.1424 13.8054 86.6144 14.2854C86.0864 14.7654 85.8224 15.3494 85.8224 16.0374V23.0934C85.8224 23.2214 85.7584 23.2854 85.6304 23.2854H82.1744Z" fill="black"/>
<path d="M80.2977 6.17334C80.4577 6.17334 80.5377 6.25334 80.5377 6.41334V9.53334C80.5377 9.69334 80.4577 9.77334 80.2977 9.77334H76.6737C76.5137 9.77334 76.4337 9.85334 76.4337 10.0133V23.0453C76.4337 23.2053 76.3537 23.2853 76.1937 23.2853H72.5937C72.4337 23.2853 72.3537 23.2053 72.3537 23.0453V10.0133C72.3537 9.85334 72.2737 9.77334 72.1137 9.77334H68.4657C68.3057 9.77334 68.2257 9.69334 68.2257 9.53334V6.41334C68.2257 6.25334 68.3057 6.17334 68.4657 6.17334H80.2977Z" fill="black"/>
<path d="M67.0247 17.9334C67.0247 18.0614 66.9607 18.1254 66.8327 18.1254H58.9607C58.8487 18.1254 58.7927 18.1894 58.7927 18.3174C58.7927 18.8934 59.0087 19.3814 59.4407 19.7814C59.8727 20.1654 60.3607 20.3574 60.9047 20.3574C61.4327 20.3574 61.8887 20.2614 62.2727 20.0694C62.6567 19.8614 62.9447 19.6134 63.1367 19.3254C63.1847 19.2134 63.2647 19.1734 63.3767 19.2054L66.5927 19.6374C66.7367 19.6694 66.7847 19.7414 66.7367 19.8534C66.3847 20.8614 65.7287 21.7014 64.7687 22.3734C63.8087 23.0294 62.5927 23.3574 61.1207 23.3574C59.7607 23.3574 58.6007 23.0774 57.6407 22.5174C56.6807 21.9574 55.9527 21.1974 55.4567 20.2374C54.9767 19.2614 54.7367 18.1654 54.7367 16.9494C54.7367 15.7654 54.9927 14.6934 55.5047 13.7334C56.0167 12.7574 56.7367 11.9894 57.6647 11.4294C58.5927 10.8534 59.6727 10.5654 60.9047 10.5654C62.2487 10.5654 63.3767 10.8614 64.2887 11.4534C65.2167 12.0454 65.9047 12.8214 66.3527 13.7814C66.8007 14.7414 67.0247 15.7734 67.0247 16.8774V17.9334ZM60.9047 13.3254C60.2807 13.3254 59.7767 13.5414 59.3927 13.9734C59.0247 14.3894 58.8327 14.8614 58.8167 15.3894C58.8167 15.5334 58.8647 15.6054 58.9607 15.6054H62.7527C62.8807 15.6054 62.9447 15.5494 62.9447 15.4374C62.9447 14.8614 62.7687 14.3654 62.4167 13.9494C62.0647 13.5334 61.5607 13.3254 60.9047 13.3254Z" fill="black"/>
<path d="M40.9526 23.2854C40.8246 23.2854 40.7606 23.2214 40.7606 23.0934V10.8294C40.7606 10.7014 40.8246 10.6374 40.9526 10.6374H44.4086C44.5366 10.6374 44.6006 10.7014 44.6006 10.8294V12.2934C44.6006 12.3734 44.6246 12.4214 44.6726 12.4374C44.7206 12.4534 44.7686 12.4294 44.8166 12.3654C45.2646 11.8374 45.8006 11.4054 46.4246 11.0694C47.0646 10.7334 47.7446 10.5654 48.4646 10.5654C50.0966 10.5654 51.3446 11.0934 52.2086 12.1494C53.0886 13.1894 53.5286 14.5654 53.5286 16.2774V23.0934C53.5286 23.2214 53.4646 23.2854 53.3366 23.2854H49.8806C49.7526 23.2854 49.6886 23.2214 49.6886 23.0934V16.2774C49.6886 15.3654 49.4726 14.6854 49.0406 14.2374C48.6246 13.7894 48.0246 13.5654 47.2406 13.5654C46.5686 13.5654 45.9926 13.7974 45.5126 14.2614C45.0326 14.7254 44.7286 15.3174 44.6006 16.0374V23.0934C44.6006 23.2214 44.5366 23.2854 44.4086 23.2854H40.9526Z" fill="black"/>
<path d="M33.1338 23.3574C31.8378 23.3574 30.6858 23.0774 29.6778 22.5174C28.6698 21.9414 27.8858 21.1654 27.3258 20.1894C26.7818 19.2134 26.5098 18.1334 26.5098 16.9494C26.5098 15.7654 26.7818 14.6934 27.3258 13.7334C27.8858 12.7574 28.6698 11.9894 29.6778 11.4294C30.6858 10.8534 31.8378 10.5654 33.1338 10.5654C34.4298 10.5654 35.5818 10.8534 36.5898 11.4294C37.6138 11.9894 38.3978 12.7574 38.9418 13.7334C39.5018 14.7094 39.7818 15.7814 39.7818 16.9494C39.7818 18.1174 39.5018 19.1974 38.9418 20.1894C38.3978 21.1654 37.6138 21.9414 36.5898 22.5174C35.5818 23.0774 34.4298 23.3574 33.1338 23.3574ZM33.1338 13.5654C32.2538 13.5654 31.5658 13.8854 31.0698 14.5254C30.5898 15.1494 30.3498 15.9574 30.3498 16.9494C30.3498 17.9414 30.5898 18.7574 31.0698 19.3974C31.5658 20.0374 32.2538 20.3574 33.1338 20.3574C34.0138 20.3574 34.7018 20.0374 35.1978 19.3974C35.6938 18.7574 35.9418 17.9414 35.9418 16.9494C35.9418 15.9574 35.6938 15.1494 35.1978 14.5254C34.7018 13.8854 34.0138 13.5654 33.1338 13.5654Z" fill="black"/>
<path d="M26.2738 22.3253C26.2898 22.4373 26.2658 22.5173 26.2018 22.5653C25.8338 22.8053 25.3458 22.9973 24.7378 23.1413C24.1298 23.2853 23.4498 23.3573 22.6978 23.3573C21.7538 23.3573 21.0338 23.1333 20.5378 22.6853C20.0418 22.2373 19.7138 21.6453 19.5538 20.9093C19.3938 20.1573 19.3138 19.2133 19.3138 18.0773V13.8293C19.3138 13.7013 19.2498 13.6373 19.1218 13.6373H17.7298C17.6018 13.6373 17.5378 13.5733 17.5378 13.4453V10.8293C17.5378 10.7013 17.6018 10.6373 17.7298 10.6373H19.1218C19.2498 10.6373 19.3138 10.5733 19.3138 10.4453V7.7813C19.3138 7.6533 19.3698 7.5813 19.4818 7.5653L22.9618 7.1333H22.9858C23.0978 7.1333 23.1538 7.1973 23.1538 7.3253V10.4453C23.1538 10.5733 23.2178 10.6373 23.3458 10.6373H25.9858C26.1138 10.6373 26.1778 10.7013 26.1778 10.8293V13.4453C26.1778 13.5733 26.1138 13.6373 25.9858 13.6373H23.3458C23.2178 13.6373 23.1538 13.7013 23.1538 13.8293V18.0773C23.1538 18.8453 23.2338 19.4213 23.3938 19.8053C23.5698 20.1733 23.9058 20.3573 24.4018 20.3573C24.8338 20.3573 25.2418 20.2933 25.6258 20.1653C25.6418 20.1653 25.6738 20.1573 25.7218 20.1413C25.7698 20.1253 25.8018 20.1253 25.8178 20.1413C25.8498 20.1573 25.8658 20.1893 25.8658 20.2373L26.2738 22.3253Z" fill="black"/>
<path d="M10.6506 23.3573C9.29064 23.3573 8.09864 23.1253 7.07464 22.6613C6.05064 22.1813 5.23464 21.5573 4.62664 20.7893C4.01864 20.0053 3.61864 19.1573 3.42664 18.2453V18.2213C3.42664 18.1093 3.50664 18.0373 3.66664 18.0053L7.24264 17.4053H7.29064C7.37064 17.4053 7.44264 17.4853 7.50664 17.6453C7.74664 18.2053 8.13864 18.7013 8.68264 19.1333C9.22664 19.5493 9.93064 19.7573 10.7946 19.7573C11.4506 19.7573 11.9786 19.6293 12.3786 19.3733C12.7786 19.1173 12.9786 18.7573 12.9786 18.2933C12.9786 17.8613 12.8666 17.5253 12.6426 17.2853C12.4186 17.0453 12.1226 16.8613 11.7546 16.7333C11.3866 16.6053 10.8506 16.4613 10.1466 16.3013C9.98664 16.2533 9.81064 16.2133 9.61864 16.1813C9.42664 16.1333 9.21064 16.0773 8.97064 16.0133C7.85064 15.7093 6.93064 15.3893 6.21064 15.0533C5.49064 14.7173 4.89064 14.2213 4.41064 13.5653C3.94664 12.9093 3.71464 12.0373 3.71464 10.9493C3.71464 10.1173 3.97864 9.33332 4.50664 8.59732C5.05064 7.84532 5.79464 7.24532 6.73864 6.79732C7.68264 6.33332 8.73064 6.10132 9.88264 6.10132C11.2426 6.10132 12.4026 6.34132 13.3626 6.82132C14.3226 7.30132 15.0666 7.90932 15.5946 8.64532C16.1226 9.36532 16.4586 10.1093 16.6026 10.8773V10.9013C16.6026 11.0133 16.5226 11.0853 16.3626 11.1173L12.7626 11.5973H12.7146C12.6346 11.5973 12.5706 11.5173 12.5226 11.3573C12.3946 10.8613 12.1066 10.4613 11.6586 10.1573C11.2106 9.85332 10.6426 9.70132 9.95464 9.70132C9.39464 9.70132 8.89064 9.82132 8.44264 10.0613C8.01064 10.2853 7.79464 10.6613 7.79464 11.1893C7.79464 11.5253 7.90664 11.7973 8.13064 12.0053C8.35464 12.2133 8.67464 12.3893 9.09064 12.5333C9.52264 12.6773 10.2106 12.8773 11.1546 13.1333L11.7066 13.2773C12.9066 13.5973 13.8826 13.9493 14.6346 14.3333C15.4026 14.7173 15.9946 15.2293 16.4106 15.8693C16.8426 16.4933 17.0586 17.3013 17.0586 18.2933C17.0586 19.3013 16.7946 20.1893 16.2666 20.9573C15.7386 21.7253 14.9866 22.3173 14.0106 22.7333C13.0506 23.1493 11.9306 23.3573 10.6506 23.3573Z" fill="black"/>
<circle cx="135.767" cy="12.7854" r="1.5" fill="black"/>
<circle cx="133.767" cy="16.7854" r="1.5" fill="black"/>
<circle cx="131.767" cy="21.7854" r="1.5" fill="black"/>
<circle cx="129.767" cy="17.7854" r="1.5" fill="black"/>
<circle cx="127.767" cy="13.7854" r="1.5" fill="black"/>
<circle cx="125.767" cy="17.7854" r="1.5" fill="black"/>
<circle cx="123.767" cy="21.7854" r="1.5" fill="black"/>
<circle cx="121.767" cy="16.7854" r="1.5" fill="black"/>
<circle cx="119.767" cy="12.7854" r="1.5" fill="black"/>
</svg>
